<mxfile host="app.diagrams.net" modified="2020-11-23T02:03:38.147Z" agent="5.0 (Windows NT 10.0; Win64; x64) AppleWebKit/537.36 (KHTML, like Gecko) Chrome/87.0.4280.66 Safari/537.36" etag="hHmmLLlLRcxMf-2cF114" version="13.10.1" type="github">
  <diagram id="C5RBs43oDa-KdzZeNtuy" name="Page-1">
    <mxGraphModel dx="616" dy="388" grid="1" gridSize="10" guides="1" tooltips="1" connect="1" arrows="1" fold="1" page="1" pageScale="1" pageWidth="827" pageHeight="1169" math="0" shadow="0">
      <root>
        <mxCell id="WIyWlLk6GJQsqaUBKTNV-0" />
        <mxCell id="WIyWlLk6GJQsqaUBKTNV-1" parent="WIyWlLk6GJQsqaUBKTNV-0" />
        <mxCell id="wrOnfUitt0Zx-drRITcX-33" value="PSORisk" style="rounded=0;whiteSpace=wrap;html=1;fillColor=none;align=left;verticalAlign=bottom;fontStyle=1;spacingLeft=6;strokeColor=#0000FF;strokeWidth=2;perimeterSpacing=1;" parent="WIyWlLk6GJQsqaUBKTNV-1" vertex="1">
          <mxGeometry x="180" y="70" width="290" height="210" as="geometry" />
        </mxCell>
        <mxCell id="wrOnfUitt0Zx-drRITcX-30" value="" style="edgeStyle=orthogonalEdgeStyle;rounded=0;orthogonalLoop=1;jettySize=auto;html=1;" parent="WIyWlLk6GJQsqaUBKTNV-1" source="1XRyv_CTQ5JVMv3gwWJy-14" target="wrOnfUitt0Zx-drRITcX-22" edge="1">
          <mxGeometry relative="1" as="geometry">
            <Array as="points">
              <mxPoint x="425" y="80" />
              <mxPoint x="425" y="80" />
            </Array>
          </mxGeometry>
        </mxCell>
        <mxCell id="1XRyv_CTQ5JVMv3gwWJy-14" value="Risk score model" style="rounded=0;whiteSpace=wrap;html=1;" parent="WIyWlLk6GJQsqaUBKTNV-1" vertex="1">
          <mxGeometry x="344" y="90" width="111" height="30" as="geometry" />
        </mxCell>
        <mxCell id="1XRyv_CTQ5JVMv3gwWJy-9" value="" style="edgeStyle=orthogonalEdgeStyle;rounded=0;orthogonalLoop=1;jettySize=auto;html=1;" parent="WIyWlLk6GJQsqaUBKTNV-1" source="iojIzIpOo88wYW9mNM4O-0" target="wrOnfUitt0Zx-drRITcX-7" edge="1">
          <mxGeometry relative="1" as="geometry">
            <mxPoint x="100" y="124" as="targetPoint" />
          </mxGeometry>
        </mxCell>
        <mxCell id="wrOnfUitt0Zx-drRITcX-26" style="edgeStyle=orthogonalEdgeStyle;rounded=0;orthogonalLoop=1;jettySize=auto;html=1;entryX=0;entryY=0.5;entryDx=0;entryDy=0;" parent="WIyWlLk6GJQsqaUBKTNV-1" source="iojIzIpOo88wYW9mNM4O-0" target="wrOnfUitt0Zx-drRITcX-10" edge="1">
          <mxGeometry relative="1" as="geometry">
            <Array as="points">
              <mxPoint x="330" y="40" />
              <mxPoint x="330" y="155" />
            </Array>
          </mxGeometry>
        </mxCell>
        <mxCell id="iojIzIpOo88wYW9mNM4O-0" value="Training set" style="shape=cylinder;whiteSpace=wrap;html=1;boundedLbl=1;backgroundOutline=1;" parent="WIyWlLk6GJQsqaUBKTNV-1" vertex="1">
          <mxGeometry x="220" y="20" width="80" height="40" as="geometry" />
        </mxCell>
        <mxCell id="wrOnfUitt0Zx-drRITcX-14" style="edgeStyle=orthogonalEdgeStyle;rounded=0;orthogonalLoop=1;jettySize=auto;html=1;exitX=0;exitY=0.5;exitDx=0;exitDy=0;entryX=0;entryY=0.5;entryDx=0;entryDy=0;" parent="WIyWlLk6GJQsqaUBKTNV-1" source="iojIzIpOo88wYW9mNM4O-41" target="wrOnfUitt0Zx-drRITcX-8" edge="1">
          <mxGeometry relative="1" as="geometry">
            <mxPoint x="170" y="140" as="targetPoint" />
            <Array as="points">
              <mxPoint x="190" y="245" />
              <mxPoint x="190" y="145" />
            </Array>
          </mxGeometry>
        </mxCell>
        <mxCell id="iojIzIpOo88wYW9mNM4O-41" value="Terminate?" style="rhombus;whiteSpace=wrap;html=1;" parent="WIyWlLk6GJQsqaUBKTNV-1" vertex="1">
          <mxGeometry x="200" y="230" width="120" height="30" as="geometry" />
        </mxCell>
        <mxCell id="t7T5ftz3e2zgj3kOmSmm-2" value="" style="endArrow=classic;html=1;exitX=0.5;exitY=1;exitDx=0;exitDy=0;" parent="WIyWlLk6GJQsqaUBKTNV-1" source="wrOnfUitt0Zx-drRITcX-9" target="iojIzIpOo88wYW9mNM4O-41" edge="1">
          <mxGeometry width="50" height="50" relative="1" as="geometry">
            <mxPoint x="235" y="265" as="sourcePoint" />
            <mxPoint x="340" y="190" as="targetPoint" />
          </mxGeometry>
        </mxCell>
        <mxCell id="wrOnfUitt0Zx-drRITcX-19" style="edgeStyle=orthogonalEdgeStyle;rounded=0;orthogonalLoop=1;jettySize=auto;html=1;exitX=0.5;exitY=0;exitDx=0;exitDy=0;entryX=0.5;entryY=1;entryDx=0;entryDy=0;" parent="WIyWlLk6GJQsqaUBKTNV-1" source="t7T5ftz3e2zgj3kOmSmm-6" target="wrOnfUitt0Zx-drRITcX-10" edge="1">
          <mxGeometry relative="1" as="geometry" />
        </mxCell>
        <mxCell id="t7T5ftz3e2zgj3kOmSmm-6" value="Construct risk score based on the best feasible particle" style="rounded=0;whiteSpace=wrap;html=1;" parent="WIyWlLk6GJQsqaUBKTNV-1" vertex="1">
          <mxGeometry x="344" y="200" width="111" height="60" as="geometry" />
        </mxCell>
        <mxCell id="t7T5ftz3e2zgj3kOmSmm-7" value="" style="edgeStyle=orthogonalEdgeStyle;rounded=0;orthogonalLoop=1;jettySize=auto;html=1;endArrow=classic;endFill=1;strokeColor=#000000;" parent="WIyWlLk6GJQsqaUBKTNV-1" source="iojIzIpOo88wYW9mNM4O-41" edge="1">
          <mxGeometry relative="1" as="geometry">
            <mxPoint x="344" y="245" as="targetPoint" />
            <mxPoint x="320" y="350" as="sourcePoint" />
            <Array as="points">
              <mxPoint x="344" y="245" />
            </Array>
          </mxGeometry>
        </mxCell>
        <mxCell id="t7T5ftz3e2zgj3kOmSmm-8" value="Yes" style="text;html=1;align=center;verticalAlign=middle;resizable=0;points=[];labelBackgroundColor=#ffffff;fontSize=12;" parent="t7T5ftz3e2zgj3kOmSmm-7" vertex="1" connectable="0">
          <mxGeometry x="-0.3409" y="-2" relative="1" as="geometry">
            <mxPoint x="-11" y="-14" as="offset" />
          </mxGeometry>
        </mxCell>
        <mxCell id="wrOnfUitt0Zx-drRITcX-28" style="edgeStyle=orthogonalEdgeStyle;rounded=0;orthogonalLoop=1;jettySize=auto;html=1;exitX=0.5;exitY=1;exitDx=0;exitDy=0;entryX=0.17;entryY=0.05;entryDx=0;entryDy=0;entryPerimeter=0;" parent="WIyWlLk6GJQsqaUBKTNV-1" source="wrOnfUitt0Zx-drRITcX-4" target="1XRyv_CTQ5JVMv3gwWJy-14" edge="1">
          <mxGeometry relative="1" as="geometry" />
        </mxCell>
        <mxCell id="wrOnfUitt0Zx-drRITcX-4" value="Test set" style="shape=cylinder;whiteSpace=wrap;html=1;boundedLbl=1;backgroundOutline=1;" parent="WIyWlLk6GJQsqaUBKTNV-1" vertex="1">
          <mxGeometry x="340" y="20" width="50" height="38" as="geometry" />
        </mxCell>
        <mxCell id="wrOnfUitt0Zx-drRITcX-18" style="edgeStyle=orthogonalEdgeStyle;rounded=0;orthogonalLoop=1;jettySize=auto;html=1;exitX=0.5;exitY=1;exitDx=0;exitDy=0;entryX=0.5;entryY=0;entryDx=0;entryDy=0;" parent="WIyWlLk6GJQsqaUBKTNV-1" source="wrOnfUitt0Zx-drRITcX-7" target="wrOnfUitt0Zx-drRITcX-8" edge="1">
          <mxGeometry relative="1" as="geometry" />
        </mxCell>
        <mxCell id="wrOnfUitt0Zx-drRITcX-7" value="Initialise particles" style="rounded=0;whiteSpace=wrap;html=1;" parent="WIyWlLk6GJQsqaUBKTNV-1" vertex="1">
          <mxGeometry x="200" y="80" width="120" height="30" as="geometry" />
        </mxCell>
        <mxCell id="wrOnfUitt0Zx-drRITcX-17" style="edgeStyle=orthogonalEdgeStyle;rounded=0;orthogonalLoop=1;jettySize=auto;html=1;exitX=0.5;exitY=1;exitDx=0;exitDy=0;entryX=0.5;entryY=0;entryDx=0;entryDy=0;" parent="WIyWlLk6GJQsqaUBKTNV-1" source="wrOnfUitt0Zx-drRITcX-8" target="wrOnfUitt0Zx-drRITcX-9" edge="1">
          <mxGeometry relative="1" as="geometry" />
        </mxCell>
        <mxCell id="wrOnfUitt0Zx-drRITcX-8" value="Evaluate particles" style="rounded=0;whiteSpace=wrap;html=1;" parent="WIyWlLk6GJQsqaUBKTNV-1" vertex="1">
          <mxGeometry x="200" y="130" width="120" height="29" as="geometry" />
        </mxCell>
        <mxCell id="wrOnfUitt0Zx-drRITcX-9" value="Update particles" style="rounded=0;whiteSpace=wrap;html=1;" parent="WIyWlLk6GJQsqaUBKTNV-1" vertex="1">
          <mxGeometry x="200" y="180" width="120" height="30" as="geometry" />
        </mxCell>
        <mxCell id="wrOnfUitt0Zx-drRITcX-20" style="edgeStyle=orthogonalEdgeStyle;rounded=0;orthogonalLoop=1;jettySize=auto;html=1;exitX=0.5;exitY=0;exitDx=0;exitDy=0;entryX=0.5;entryY=1;entryDx=0;entryDy=0;" parent="WIyWlLk6GJQsqaUBKTNV-1" source="wrOnfUitt0Zx-drRITcX-10" target="1XRyv_CTQ5JVMv3gwWJy-14" edge="1">
          <mxGeometry relative="1" as="geometry" />
        </mxCell>
        <mxCell id="wrOnfUitt0Zx-drRITcX-10" value="Logistic Regression" style="rounded=0;whiteSpace=wrap;html=1;" parent="WIyWlLk6GJQsqaUBKTNV-1" vertex="1">
          <mxGeometry x="344" y="140" width="111" height="30" as="geometry" />
        </mxCell>
        <mxCell id="wrOnfUitt0Zx-drRITcX-16" value="No" style="text;html=1;align=center;verticalAlign=middle;resizable=0;points=[];labelBackgroundColor=#ffffff;fontSize=12;" parent="WIyWlLk6GJQsqaUBKTNV-1" vertex="1" connectable="0">
          <mxGeometry x="260" y="245" as="geometry">
            <mxPoint x="-54" y="-12" as="offset" />
          </mxGeometry>
        </mxCell>
        <mxCell id="wrOnfUitt0Zx-drRITcX-22" value="Test &lt;br&gt;AUC" style="shape=parallelogram;perimeter=parallelogramPerimeter;whiteSpace=wrap;html=1;fixedSize=1;" parent="WIyWlLk6GJQsqaUBKTNV-1" vertex="1">
          <mxGeometry x="397" y="27" width="70" height="30" as="geometry" />
        </mxCell>
      </root>
    </mxGraphModel>
  </diagram>
</mxfile>
